<svg width="12" height="10" xmlns="http://www.w3.org/2000/svg"><g fill="none" fill-rule="evenodd"><path d="M11.669.185a4.83 4.83 0 0 1-1.564.612A2.427 2.427 0 0 0 8.308 0C6.949 0 5.847 1.13 5.847 2.524c0 .198.02.39.063.575C3.864 2.994 2.05 1.99.835.461a2.57 2.57 0 0 0-.333 1.27 2.54 2.54 0 0 0 1.096 2.101 2.417 2.417 0 0 1-1.116-.314v.03c0 1.224.848 2.245 1.975 2.476a2.399 2.399 0 0 1-1.112.044c.314 1.003 1.222 1.733 2.3 1.752A4.862 4.862 0 0 1 0 8.867 6.853 6.853 0 0 0 3.774 10c4.529 0 7.005-3.846 7.005-7.182 0-.11-.002-.22-.006-.328.48-.355.898-.8 1.227-1.306-.44.2-.916.336-1.414.397A2.52 2.52 0 0 0 11.67.185" fill="#354052"/><path d="M0-1h12v12H0z"/></g></svg>