<svg xmlns="http://www.w3.org/2000/svg" width="108" height="32" fill="none"><path fill="#fff" d="M106.515 24.384v1.613c0 .505-.051.984-.127 1.488a5.127 5.127 0 0 1-.428 1.337 4.312 4.312 0 0 1-.807 1.11 4.307 4.307 0 0 1-1.11.806 6.412 6.412 0 0 1-1.336.454 9.893 9.893 0 0 1-1.488.126H6.026c-.504 0-1.009-.05-1.488-.126a5.167 5.167 0 0 1-1.336-.429 4.31 4.31 0 0 1-1.11-.807 4.312 4.312 0 0 1-.807-1.11 5.163 5.163 0 0 1-.428-1.336 10.205 10.205 0 0 1-.127-1.513V6.051c0-.504.05-1.009.127-1.513.075-.454.226-.908.428-1.336a4.31 4.31 0 0 1 .807-1.11 5.109 5.109 0 0 1 1.11-.832A4.872 4.872 0 0 1 4.538.83 10.206 10.206 0 0 1 6.051.705h95.143c.504 0 .983.05 1.488.126.454.076.907.227 1.336.429a4.515 4.515 0 0 1 1.942 1.942c.202.403.353.857.428 1.31.076.505.127 1.01.127 1.514v18.358z"/><path fill="#000" d="M37.976 8.246a2.07 2.07 0 0 1-.605 1.589 2.32 2.32 0 0 1-1.765.706 2.492 2.492 0 0 1-2.497-2.446v-.05a2.46 2.46 0 0 1 2.447-2.497h.05c.328 0 .68.075.983.201.303.126.555.303.757.53l-.429.429a1.639 1.639 0 0 0-1.311-.58c-1.034 0-1.866.832-1.866 1.84v.076c-.025 1.034.807 1.891 1.866 1.917a1.87 1.87 0 0 0 1.337-.53c.252-.277.378-.605.403-.983h-1.74v-.58h2.32c.05.126.05.252.05.378zm3.682-2.017h-2.194v1.513h1.967v.58h-1.967v1.513h2.194v.605h-2.8V5.649h2.8v.58zm2.623 4.21h-.63V6.23h-1.337v-.58h3.303v.58h-1.336v4.21zm3.706 0V5.65h.606v4.79h-.606zm3.354 0h-.605V6.23H49.4v-.58h3.303v.58h-1.337l-.025 4.21zm7.59-.63a2.48 2.48 0 0 1-3.53 0 2.375 2.375 0 0 1-.706-1.79 2.413 2.413 0 0 1 .706-1.79 2.473 2.473 0 0 1 3.505-.026l.025.026c.454.479.732 1.11.707 1.765a2.43 2.43 0 0 1-.707 1.815zm-3.05-.403a1.842 1.842 0 0 0 2.622 0 1.97 1.97 0 0 0 .53-1.362 1.919 1.919 0 0 0-.53-1.387 1.842 1.842 0 0 0-2.623 0 1.882 1.882 0 0 0-.53 1.387 1.732 1.732 0 0 0 .53 1.362zm4.64 1.034V5.649h.756l2.32 3.732h.025l-.026-.933v-2.8h.606v4.792h-.656L61.1 6.53h-.025l.025.933v3h-.58v-.024zm-5.952 7.01a3.369 3.369 0 0 0-3.38 3.404c.026 1.866 1.54 3.405 3.405 3.38 1.866 0 3.38-1.539 3.38-3.405a3.353 3.353 0 0 0-3.304-3.404c-.05.025-.076.025-.101.025zm0 5.472c-1.034 0-1.916-.857-1.916-2.068 0-1.21.882-2.068 1.916-2.068 1.034 0 1.916.833 1.916 2.068 0 1.236-.907 2.068-1.916 2.068zm-7.464-5.472a3.369 3.369 0 0 0-3.38 3.404c.026 1.866 1.539 3.405 3.405 3.38 1.866 0 3.38-1.539 3.38-3.405a3.353 3.353 0 0 0-3.304-3.404c-.026.025-.076.025-.101.025zm0 5.472c-1.034 0-1.917-.857-1.917-2.068 0-1.21.883-2.068 1.917-2.068s1.916.833 1.916 2.068c0 1.236-.882 2.068-1.916 2.068zm-8.877-4.438v1.437h3.455a3.04 3.04 0 0 1-.782 1.816c-.706.706-1.664 1.11-2.673 1.059-2.118-.05-3.807-1.816-3.732-3.934a3.824 3.824 0 0 1 3.732-3.732 3.634 3.634 0 0 1 2.623 1.034l1.009-1.009a5.005 5.005 0 0 0-3.632-1.462c-2.925-.177-5.421 2.067-5.598 4.993-.176 2.925 2.068 5.421 4.993 5.598h.605c1.564 0 2.75-.505 3.682-1.488.933-.983 1.261-2.295 1.261-3.38 0-.302-.025-.604-.076-.907l-4.867-.025zm36.262 1.135c-.277-.757-1.135-2.169-2.925-2.169-1.79 0-3.203 1.387-3.203 3.404a3.364 3.364 0 0 0 3.279 3.405h.126a3.363 3.363 0 0 0 2.824-1.514l-1.16-.781c-.353.58-.983.933-1.664.933a1.707 1.707 0 0 1-1.64-1.034l4.54-1.891-.177-.353zm-4.64 1.134a1.866 1.866 0 0 1 1.74-1.992h.05c.53-.025 1.034.252 1.261.732l-3.05 1.26zm-3.681 3.279h1.487v-9.986H66.17v9.986zm-2.472-5.826h-.05a2.293 2.293 0 0 0-1.79-.756c-1.715 0-3.253 1.488-3.253 3.43 0 1.941 1.563 3.379 3.253 3.379.68.025 1.336-.278 1.79-.782h.05v.479c0 1.311-.706 1.992-1.815 1.992a1.92 1.92 0 0 1-1.715-1.21l-1.311.554a3.239 3.239 0 0 0 3.026 2.018c1.765 0 3.227-1.034 3.227-3.556v-6.102h-1.412v.554zm-1.714 4.716c-1.034 0-1.892-.857-1.892-2.043 0-1.185.858-2.067 1.892-2.067 1.034 0 1.815.882 1.815 2.067 0 1.186-.782 2.043-1.815 2.043zM81.5 14.046h-3.58v10.01h1.487v-3.782H81.5c1.665 0 3.279-1.21 3.279-3.101 0-1.892-1.614-3.127-3.279-3.127zm.05 4.816h-2.117v-3.43h2.118a1.7 1.7 0 0 1 1.715 1.715c0 .959-.782 1.715-1.715 1.715zm9.23-1.437c-1.084 0-2.194.479-2.673 1.538l1.337.555c.277-.555.807-.732 1.361-.732.782 0 1.564.454 1.564 1.287v.1a3.33 3.33 0 0 0-1.564-.378c-1.437 0-2.874.782-2.874 2.244 0 1.337 1.16 2.194 2.496 2.194a2.067 2.067 0 0 0 1.891-.983h.05v.782h1.438v-3.833c0-1.79-1.311-2.774-3.026-2.774zm-.176 5.472c-.48 0-1.16-.252-1.16-.858 0-.781.857-1.059 1.588-1.059.48 0 .959.101 1.362.328-.126.908-.883 1.589-1.79 1.589zm8.447-5.245l-1.715 4.337h-.05l-1.765-4.337h-1.614l2.673 6.052-1.513 3.379h1.563l4.086-9.431h-1.665zm-13.44 6.38h1.487v-9.986h-1.487v9.986zm-67.052-7.969L8.498 26.225c-.303-.176-.454-.58-.454-1.11 0-1.008-.076-16.87-.1-18.054 0-.58.201-.908.504-1.085l10.111 10.087zm.43.404l2.924 2.9-12.28 6.732a.933.933 0 0 1-.278.126l9.633-9.759zm0-.833L9.178 5.85c.151.025.302.076.429.126l12.28 6.708-2.9 2.95zm7.64 1.16l-4.186 2.295-3.051-3.026 3.05-3.076 4.187 2.27c1.034.58.504 1.26 0 1.537zm80.567-10.036v-.731c0-.53-.05-1.085-.151-1.614a5.355 5.355 0 0 0-.504-1.513 5.353 5.353 0 0 0-2.245-2.244c-.479-.253-1.008-.404-1.538-.505A8.469 8.469 0 0 0 101.169 0H6.027c-.53 0-1.085.05-1.614.151A5.32 5.32 0 0 0 2.9.656a5.48 5.48 0 0 0-1.311.958A4.665 4.665 0 0 0 .656 2.9a5.32 5.32 0 0 0-.505 1.513A8.54 8.54 0 0 0 0 6.027v19.971c0 .53.05 1.085.151 1.614a5.32 5.32 0 0 0 .505 1.513c.252.48.554.908.933 1.286.378.379.807.706 1.286.933a5.35 5.35 0 0 0 1.513.505c.53.075 1.059.126 1.614.151h95.167c.53 0 1.085-.05 1.614-.151.53-.101 1.059-.253 1.539-.505a5.264 5.264 0 0 0 1.286-.933c.378-.378.706-.807.958-1.286s.403-.983.504-1.513a8.53 8.53 0 0 0 .151-1.614V7.64c-.025-.303-.025-.58-.025-.883zm-.681 17.627v1.613c0 .505-.05.984-.126 1.488a5.165 5.165 0 0 1-.428 1.337c-.202.403-.48.781-.807 1.11a4.31 4.31 0 0 1-1.11.806 6.432 6.432 0 0 1-1.336.454 9.893 9.893 0 0 1-1.488.126H6.027c-.505 0-1.009-.05-1.488-.126a5.167 5.167 0 0 1-1.336-.429 4.31 4.31 0 0 1-1.11-.807 4.31 4.31 0 0 1-.807-1.11 5.164 5.164 0 0 1-.429-1.336 10.205 10.205 0 0 1-.126-1.513V6.052c0-.504.05-1.009.126-1.513.076-.454.227-.908.429-1.336a4.31 4.31 0 0 1 .807-1.11 4.31 4.31 0 0 1 1.11-.807A4.873 4.873 0 0 1 4.539.857 10.206 10.206 0 0 1 6.052.731h95.143c.504 0 .983.05 1.487.126a5.17 5.17 0 0 1 1.337.429 4.515 4.515 0 0 1 1.942 1.942 4.7 4.7 0 0 1 .428 1.311c.076.504.126 1.009.126 1.513v18.333z"/></svg>