<svg xmlns="http://www.w3.org/2000/svg" width="33" height="26" viewBox="0 0 33 26">
    <g fill="none" fill-rule="nonzero">
        <path fill="#10C8ED" d="M13.31 25.32a3.75 3.75 0 0 1-2-.58 3.86 3.86 0 0 1-1.17-5.19l4-6.94-4-6.84A3.86 3.86 0 0 1 11.21.63a3.76 3.76 0 0 1 5.34 1.22l5.18 8.85a3.78 3.78 0 0 1 0 3.8l-5.18 9a3.76 3.76 0 0 1-3.24 1.82z"/>
        <path fill="#1686F7" d="M28.8 16.4H4.4a3.76 3.76 0 1 1 0-7.52h24.4a3.76 3.76 0 1 1 0 7.52z" style="mix-blend-mode:multiply"/>
    </g>
</svg>
