<svg width="12" height="12" xmlns="http://www.w3.org/2000/svg"><g fill="none" fill-rule="evenodd"><g fill-rule="nonzero"><path fill="#354052" d="M0 0h12v12H0z"/><path d="M2.864 4.013a.312.312 0 0 0-.102-.263l-.753-.907v-.135h2.337L6.153 6.67l1.588-3.962H9.97v.135l-.643.617a.188.188 0 0 0-.072.18v4.535a.188.188 0 0 0 .072.18l.628.617v.136H6.793v-.136l.65-.632c.065-.064.065-.083.065-.18V4.495l-1.81 4.598h-.245L3.345 4.495v3.081c-.017.13.026.26.117.354l.847 1.027v.136H1.908v-.136l.846-1.027a.41.41 0 0 0 .11-.354V4.013z" fill="#FFF"/></g><path d="M0 0h12v12H0z"/></g></svg>